<mxfile host="65bd71144e">
    <diagram id="DcInBnUPGecnmIyDasVy" name="Page-1">
        <mxGraphModel dx="141" dy="387" grid="0" gridSize="10" guides="1" tooltips="1" connect="1" arrows="1" fold="1" page="0" pageScale="1" pageWidth="3300" pageHeight="4681" background="#1A1A1A" math="0" shadow="0">
            <root>
                <mxCell id="0"/>
                <mxCell id="1" parent="0"/>
                <mxCell id="7" value="" style="ellipse;whiteSpace=wrap;html=1;aspect=fixed;fillColor=#990099;strokeColor=#990099;" parent="1" vertex="1">
                    <mxGeometry x="848" y="330" width="80" height="80" as="geometry"/>
                </mxCell>
                <mxCell id="43" value="- title&lt;br&gt;- about&lt;br&gt;- notebook&lt;br&gt;- creation date&lt;br&gt;- version&lt;br&gt;&amp;nbsp; &amp;nbsp; - dependencies&lt;br&gt;&amp;nbsp; &amp;nbsp; - release date&lt;br&gt;&amp;nbsp; &amp;nbsp; - focus time&lt;br&gt;&amp;nbsp; &amp;nbsp; - url (PR, commit)" style="text;html=1;strokeColor=none;fillColor=none;align=left;verticalAlign=middle;whiteSpace=wrap;rounded=0;fontColor=#990099;fontStyle=1" parent="1" vertex="1">
                    <mxGeometry x="951" y="312" width="145" height="133" as="geometry"/>
                </mxCell>
            </root>
        </mxGraphModel>
    </diagram>
</mxfile>